HIERARCHY
ROOT hip
{
  OFFSET 0.0 0.0 0.0
  CHANNELS 6 Xposition Yposition Zposition Zrotation Yrotation Xrotation
  JOINT torso
  {
    OFFSET 0.0 0.0 0.0
    CHANNELS 3 Zrotation Xrotation Yrotation
    JOINT neck
    {
      OFFSET -31.42098999999993 328.8025209999999 74.3554680000002
      CHANNELS 3 Zrotation Xrotation Yrotation
      JOINT head
      {
        OFFSET 3.3519900000001144 303.81732099999994 206.53942900000015
        CHANNELS 3 Zrotation Xrotation Yrotation
        End Site
        {
          OFFSET 0.0 0.0 0.0
        }
      }
    }
    JOINT left_collar
    {
      OFFSET -31.42098999999993 328.8025209999999 74.3554680000002
      CHANNELS 3 Zrotation Xrotation Yrotation
      JOINT left_upper_arm
      {
        OFFSET -124.490479 -8.162841999999841 8.226441000000023
        CHANNELS 3 Zrotation Xrotation Yrotation
        JOINT left_forearm
        {
          OFFSET -253.595764 -1.5758060000000569 105.0729980000001
          CHANNELS 3 Zrotation Xrotation Yrotation
          JOINT left_hand
          {
            OFFSET -269.48803699999996 0.1478270000000066 -55.346191999999974
            CHANNELS 3 Zrotation Xrotation Yrotation
            End Site
            {
              OFFSET 0.0 0.0 0.0
            }
          }
        }
      }
    }
    JOINT right_collar
    {
      OFFSET -31.42098999999993 328.8025209999999 74.3554680000002
      CHANNELS 3 Zrotation Xrotation Yrotation
      JOINT right_upper_arm
      {
        OFFSET 162.02484099999998 0.46441600000002836 2.2303470000001653
        CHANNELS 3 Zrotation Xrotation Yrotation
        JOINT right_forearm
        {
          OFFSET 240.01246700000004 -25.835875999999985 121.34179699999959
          CHANNELS 3 Zrotation Xrotation Yrotation
          JOINT right_hand
          {
            OFFSET 252.48539699999992 18.910399999999868 -67.53466800000001
            CHANNELS 3 Zrotation Xrotation Yrotation
            End Site
            {
              OFFSET 0.0 0.0 0.0
            }
          }
        }
      }
    }
  }
}
MOTION
Frames: 9
Frame Time: 0.01
-267.55688237786376 262.51379380760073 1560.650856035659 1.4793492696406951 -9.385735923628646 8.958136108057113 2.4911951282368068 3.1362476620153106 -0.1970878674784934 -1.3767111272043924 -8.090346937953107 1.0713305839688505 0.0 0.0 0.0 -0.8325568370013245 0.570184298618493 -10.63696923933991 52.383845439529985 19.986207002339874 5.641696062874578 31.24603823627485 -1.2846573943626252 -18.654769206999966 0.0 0.0 0.0 -5.585098430745331 -0.30494740534836173 -8.310942830747118 -43.94143928653618 17.649430626793713 -10.746581702768317 -50.92716467947158 0.5618728111539727 36.643295496680864 0.0 0.0 0.0
-267.50826290972674 262.46988294941394 1560.9101360023888 1.4522400975185086 -9.383665274879315 8.923516426372672 2.4938664962927066 3.1292829349089417 -0.19844580007897625 -1.3744555417098845 -8.105549401172 1.069957996899069 0.0 0.0 0.0 -0.8362395181766386 0.5682453685728894 -10.614288923027592 52.335906321085034 19.965130055389306 5.642242076309451 31.320915883749663 -1.2599969124525086 -18.754249689894664 0.0 0.0 0.0 -5.55580848651781 -0.3006986177823471 -8.255882983069176 -44.66049102568539 17.87163762597286 -10.96297884451344 -50.095504908778885 0.3094745120307046 36.138159139289336 0.0 0.0 0.0
-267.45944131772535 262.42568380398 1561.1725512055261 1.4251277641288758 -9.382296775113183 8.890357585797124 2.496560797342985 3.122491354908402 -0.19978819734245853 -1.3720167486510255 -8.120461487049694 1.0684491764065291 0.0 0.0 0.0 -0.8400595317919838 0.566364554496633 -10.592930139482762 52.28718369090399 19.944508512579308 5.64134344250776 31.39578307264016 -1.2353287739129195 -18.853266450375113 0.0 0.0 0.0 -5.52691615377421 -0.29656673187694493 -8.202258183288833 -45.37373410609681 18.090029820772244 -11.178409352970231 -49.253053828596 0.07054306689592495 35.64690059852975 0.0 0.0 0.0
-267.41019159475013 262.38156262315414 1561.4387060557742 1.398219472325836 -9.381807755552847 8.859432369381219 2.4992280449782505 3.11593180548751 -0.20109806267690478 -1.3693727073070974 -8.134904283225486 1.0667854493257787 0.0 0.0 0.0 -0.8439225570533607 0.5645912671684014 -10.573472452897184 52.23714511327608 19.924429534994477 5.638412488991237 31.470621840361776 -1.2105700893254232 -18.952114486439005 0.0 0.0 0.0 -5.498839192858489 -0.29261954183446814 -8.151071224467506 -46.07013844314322 18.301705670348824 -11.38887258150023 -48.41288860108287 -0.1515359014629892 35.17756520874308 0.0 0.0 0.0
-267.36025248412966 262.3379219537384 1561.709213162991 1.371720352430776 -9.38233420172086 8.831455055410512 2.50181594442844 3.109653953741202 -0.20235900791846367 -1.3665079336565646 -8.14872847867405 1.064953319577391 0.0 0.0 0.0 -0.8477360423801827 0.5629713328891507 -10.556442445378856 52.18523941553512 19.90496240868279 5.632877410693863 31.545451195518428 -1.185617638039446 -19.05116332452997 0.0 0.0 0.0 -5.471971899475337 -0.28891920069480204 -8.103266490571924 -46.739073143770916 18.50404402263688 -11.59040550675858 -47.58855059901431 -0.35417685940222515 34.73737783142559 0.0 0.0 0.0
-267.3093366155718 262.2952003786997 1561.9846386898155 1.3458304251407573 -9.383960976868146 8.807056099640642 2.50427101848238 3.1036966396463335 -0.20355567131380858 -1.3634148317109591 -8.161821123376999 1.0629455315454552 0.0 0.0 0.0 -0.8514116842233639 0.5615454467775979 -10.542293772831222 52.13091514764543 19.88615561644644 5.624202143439464 31.620323746658396 -1.1603506864819928 -19.150845087866784 0.0 0.0 0.0 -5.446673569239755 -0.2855205315971744 -8.059699979088611 -47.3706746521443 18.6947749541258 -11.779237749874275 -46.79347080151406 -0.5356169347002754 34.33253420957375 0.0 0.0 0.0
-267.2571393769207 262.25387116753507 1562.2654515703582 1.320741740997287 -9.386713903740306 8.786760123380898 2.5065399093501 3.098086205639208 -0.20467417882256328 -1.3600950551568316 -8.174110142799595 1.0607621186693756 0.0 0.0 0.0 -0.8548671476494258 0.5603478745789026 -10.531389158592894 52.073637026060815 19.8680340365993 5.611904416931136 31.69532269572523 -1.1346336074559629 -19.251643538556685 0.0 0.0 0.0 -5.423258977798432 -0.2824697329459385 -8.021113304122368 -47.95617259267942 18.872026139206408 -11.951937458246771 -46.04038562610021 -0.6948749687303226 33.968066836309276 0.0 0.0 0.0
-267.2033470922821 262.2144396365687 1562.5519793487567 1.296635718409333 -9.390554118970954 8.770968174348017 2.5085708539379303 3.0928348247478366 -0.20570264116158743 -1.356560841985477 -8.185566359377564 1.0584113921469278 0.0 0.0 0.0 -0.8580269885049884 0.5594054516620507 -10.523985135517165 52.01289962184131 19.850596322675557 5.595571329016423 31.770559445593832 -1.108318082345398 -19.354084850303774 0.0 0.0 0.0 -5.401991205129017 -0.279803496007953 -7.988112738048322 -48.48815459669326 19.03434479332984 -12.105537920892175 -45.34079055729275 -0.8316600906655898 33.64778737108432 0.0 0.0 0.0
-267.14764419735764 262.1774390695423 1562.8443728818675 1.2736806732402455 -9.39537500828184 8.759945012567126 2.510315325165827 3.0879389376087043 -0.20663167180004574 -1.352836225062981 -8.1962029712387 1.0559107994528345 0.0 0.0 0.0 -0.8608228258545381 0.558736911281846 -10.520220310082212 51.948237772183795 19.833812506663108 5.574871981925069 31.84617200768732 -1.081244720869466 -19.458730653385693 0.0 0.0 0.0 -5.383076947404449 -0.2775485268679229 -7.961154042406169 -48.960757939771945 19.18069778304194 -12.23763713522723 -44.70447286853964 -0.9462476140107623 33.37429894846363 0.0 0.0 0.0
